<svg width="333" height="134" viewBox="0 0 333 134" fill="none" xmlns="http://www.w3.org/2000/svg">
<g clip-path="url(#clip0_103_84)">
<path d="M18.6928 20.5742H0V39.2779H18.6928V20.5742Z" fill="#E5E5ED"/>
<path d="M100.941 20.5742H82.248V39.2779H100.941V20.5742Z" fill="#E5E5ED"/>
<path d="M183.19 20.5742H164.497V39.2779H183.19V20.5742Z" fill="#E5E5ED"/>
<path d="M265.438 20.5742H246.745V39.2779H265.438V20.5742Z" fill="#E5E5ED"/>
<path d="M265.438 0H246.745V18.7037H265.438V0Z" fill="#E5E5ED"/>
<path d="M39.2553 20.5742H20.5625V39.2779H39.2553V20.5742Z" fill="#E5E5ED"/>
<path d="M121.503 20.5742H102.811V39.2779H121.503V20.5742Z" fill="#E5E5ED"/>
<path d="M203.751 20.5742H185.059V39.2779H203.751V20.5742Z" fill="#E5E5ED"/>
<path d="M59.8168 20.5742H41.124V39.2779H59.8168V20.5742Z" fill="#E5E5ED"/>
<path d="M142.065 20.5742H123.372V39.2779H142.065V20.5742Z" fill="#E5E5ED"/>
<path d="M224.314 20.5742H205.621V39.2779H224.314V20.5742Z" fill="#E5E5ED"/>
<path d="M18.6928 41.1479H0V59.8517H18.6928V41.1479Z" fill="#E5E5ED"/>
<path d="M100.941 41.1479H82.248V59.8517H100.941V41.1479Z" fill="#E5E5ED"/>
<path d="M183.19 41.1479H164.497V59.8517H183.19V41.1479Z" fill="#E5E5ED"/>
<path d="M265.438 41.1479H246.745V59.8517H265.438V41.1479Z" fill="#E5E5ED"/>
<path d="M59.8168 41.1479H41.124V59.8517H59.8168V41.1479Z" fill="#E5E5ED"/>
<path d="M142.065 41.1479H123.372V59.8517H142.065V41.1479Z" fill="#E5E5ED"/>
<path d="M224.314 41.1479H205.621V59.8517H224.314V41.1479Z" fill="#E5E5ED"/>
<path d="M18.6928 61.7222H0V80.4259H18.6928V61.7222Z" fill="#E5E5ED"/>
<path d="M100.941 61.7222H82.248V80.4259H100.941V61.7222Z" fill="#E5E5ED"/>
<path d="M183.19 61.7222H164.497V80.4259H183.19V61.7222Z" fill="#E5E5ED"/>
<path d="M265.438 61.7222H246.745V80.4259H265.438V61.7222Z" fill="#E5E5ED"/>
<path d="M39.2553 61.7222H20.5625V80.4259H39.2553V61.7222Z" fill="#E5E5ED"/>
<path d="M121.503 61.7222H102.811V80.4259H121.503V61.7222Z" fill="#E5E5ED"/>
<path d="M203.751 61.7222H185.059V80.4259H203.751V61.7222Z" fill="#E5E5ED"/>
<path d="M286 61.7222H267.308V80.4259H286V61.7222Z" fill="#E5E5ED"/>
<path d="M59.8168 61.7222H41.124V80.4259H59.8168V61.7222Z" fill="#E5E5ED"/>
<path d="M142.065 61.7222H123.372V80.4259H142.065V61.7222Z" fill="#E5E5ED"/>
<path d="M224.314 61.7222H205.621V80.4259H224.314V61.7222Z" fill="#E5E5ED"/>
<path d="M18.6928 82.2964H0V101H18.6928V82.2964Z" fill="#E5E5ED"/>
</g>
<path d="M109.229 110.406C109.229 110.074 109.176 109.781 109.072 109.527C108.975 109.267 108.799 109.033 108.545 108.824C108.298 108.616 107.952 108.417 107.51 108.229C107.074 108.04 106.52 107.848 105.85 107.652C105.146 107.444 104.512 107.213 103.945 106.959C103.379 106.699 102.894 106.402 102.49 106.07C102.087 105.738 101.777 105.357 101.562 104.928C101.348 104.498 101.24 104.007 101.24 103.453C101.24 102.9 101.354 102.389 101.582 101.92C101.81 101.451 102.135 101.044 102.559 100.699C102.988 100.348 103.499 100.074 104.092 99.8789C104.684 99.6836 105.345 99.5859 106.074 99.5859C107.142 99.5859 108.047 99.791 108.789 100.201C109.538 100.605 110.107 101.135 110.498 101.793C110.889 102.444 111.084 103.141 111.084 103.883H109.209C109.209 103.349 109.095 102.877 108.867 102.467C108.639 102.05 108.294 101.725 107.832 101.49C107.37 101.249 106.784 101.129 106.074 101.129C105.404 101.129 104.85 101.23 104.414 101.432C103.978 101.633 103.652 101.907 103.438 102.252C103.229 102.597 103.125 102.991 103.125 103.434C103.125 103.733 103.187 104.007 103.311 104.254C103.441 104.495 103.639 104.719 103.906 104.928C104.18 105.136 104.525 105.328 104.941 105.504C105.365 105.68 105.869 105.849 106.455 106.012C107.262 106.24 107.959 106.493 108.545 106.773C109.131 107.053 109.613 107.369 109.99 107.721C110.374 108.066 110.658 108.46 110.84 108.902C111.029 109.339 111.123 109.833 111.123 110.387C111.123 110.966 111.006 111.49 110.771 111.959C110.537 112.428 110.202 112.828 109.766 113.16C109.329 113.492 108.805 113.749 108.193 113.932C107.588 114.107 106.911 114.195 106.162 114.195C105.505 114.195 104.857 114.104 104.219 113.922C103.587 113.74 103.011 113.466 102.49 113.102C101.976 112.737 101.562 112.288 101.25 111.754C100.944 111.214 100.791 110.589 100.791 109.879H102.666C102.666 110.367 102.76 110.787 102.949 111.139C103.138 111.484 103.395 111.77 103.721 111.998C104.053 112.226 104.427 112.395 104.844 112.506C105.267 112.61 105.706 112.662 106.162 112.662C106.82 112.662 107.376 112.571 107.832 112.389C108.288 112.206 108.633 111.946 108.867 111.607C109.108 111.269 109.229 110.868 109.229 110.406ZM117.676 103.434V104.82H111.963V103.434H117.676ZM113.896 100.865H115.703V111.383C115.703 111.741 115.758 112.011 115.869 112.193C115.98 112.376 116.123 112.496 116.299 112.555C116.475 112.613 116.663 112.643 116.865 112.643C117.015 112.643 117.171 112.63 117.334 112.604C117.503 112.571 117.63 112.545 117.715 112.525L117.725 114C117.581 114.046 117.393 114.088 117.158 114.127C116.93 114.173 116.654 114.195 116.328 114.195C115.885 114.195 115.479 114.107 115.107 113.932C114.736 113.756 114.44 113.463 114.219 113.053C114.004 112.636 113.896 112.076 113.896 111.373V100.865ZM126.025 112.193V106.754C126.025 106.337 125.941 105.976 125.771 105.67C125.609 105.357 125.361 105.117 125.029 104.947C124.697 104.778 124.287 104.693 123.799 104.693C123.343 104.693 122.943 104.771 122.598 104.928C122.259 105.084 121.992 105.289 121.797 105.543C121.608 105.797 121.514 106.07 121.514 106.363H119.707C119.707 105.986 119.805 105.611 120 105.24C120.195 104.869 120.475 104.534 120.84 104.234C121.211 103.928 121.654 103.688 122.168 103.512C122.689 103.329 123.268 103.238 123.906 103.238C124.674 103.238 125.352 103.368 125.938 103.629C126.53 103.889 126.992 104.283 127.324 104.811C127.663 105.331 127.832 105.986 127.832 106.773V111.695C127.832 112.047 127.861 112.421 127.92 112.818C127.985 113.215 128.079 113.557 128.203 113.844V114H126.318C126.227 113.792 126.156 113.515 126.104 113.17C126.051 112.818 126.025 112.493 126.025 112.193ZM126.338 107.594L126.357 108.863H124.531C124.017 108.863 123.558 108.906 123.154 108.99C122.751 109.068 122.412 109.189 122.139 109.352C121.865 109.514 121.657 109.719 121.514 109.967C121.37 110.208 121.299 110.491 121.299 110.816C121.299 111.148 121.374 111.451 121.523 111.725C121.673 111.998 121.898 112.216 122.197 112.379C122.503 112.535 122.878 112.613 123.32 112.613C123.874 112.613 124.362 112.496 124.785 112.262C125.208 112.027 125.544 111.741 125.791 111.402C126.045 111.064 126.182 110.735 126.201 110.416L126.973 111.285C126.927 111.559 126.803 111.861 126.602 112.193C126.4 112.525 126.13 112.844 125.791 113.15C125.459 113.45 125.062 113.701 124.6 113.902C124.144 114.098 123.63 114.195 123.057 114.195C122.34 114.195 121.712 114.055 121.172 113.775C120.638 113.495 120.221 113.121 119.922 112.652C119.629 112.177 119.482 111.646 119.482 111.061C119.482 110.494 119.593 109.996 119.814 109.566C120.036 109.13 120.355 108.769 120.771 108.482C121.188 108.189 121.689 107.968 122.275 107.818C122.861 107.669 123.516 107.594 124.238 107.594H126.338ZM132.48 105.465V118.062H130.664V103.434H132.324L132.48 105.465ZM139.6 108.629V108.834C139.6 109.602 139.508 110.315 139.326 110.973C139.144 111.624 138.877 112.19 138.525 112.672C138.18 113.154 137.754 113.528 137.246 113.795C136.738 114.062 136.156 114.195 135.498 114.195C134.827 114.195 134.235 114.085 133.721 113.863C133.206 113.642 132.77 113.32 132.412 112.896C132.054 112.473 131.768 111.965 131.553 111.373C131.344 110.781 131.201 110.113 131.123 109.371V108.277C131.201 107.496 131.348 106.796 131.562 106.178C131.777 105.559 132.061 105.032 132.412 104.596C132.77 104.153 133.203 103.818 133.711 103.59C134.219 103.355 134.805 103.238 135.469 103.238C136.133 103.238 136.722 103.368 137.236 103.629C137.751 103.883 138.184 104.247 138.535 104.723C138.887 105.198 139.15 105.768 139.326 106.432C139.508 107.089 139.6 107.822 139.6 108.629ZM137.783 108.834V108.629C137.783 108.102 137.728 107.607 137.617 107.145C137.507 106.676 137.334 106.266 137.1 105.914C136.872 105.556 136.579 105.276 136.221 105.074C135.863 104.866 135.436 104.762 134.941 104.762C134.486 104.762 134.089 104.84 133.75 104.996C133.418 105.152 133.135 105.364 132.9 105.631C132.666 105.891 132.474 106.191 132.324 106.529C132.181 106.861 132.074 107.206 132.002 107.564V110.094C132.132 110.549 132.314 110.979 132.549 111.383C132.783 111.78 133.096 112.102 133.486 112.35C133.877 112.59 134.368 112.711 134.961 112.711C135.449 112.711 135.869 112.61 136.221 112.408C136.579 112.2 136.872 111.917 137.1 111.559C137.334 111.201 137.507 110.79 137.617 110.328C137.728 109.859 137.783 109.361 137.783 108.834ZM144.6 114H142.793V102.32C142.793 101.559 142.93 100.917 143.203 100.396C143.483 99.8691 143.883 99.472 144.404 99.2051C144.925 98.9316 145.544 98.7949 146.26 98.7949C146.468 98.7949 146.676 98.8079 146.885 98.834C147.1 98.86 147.308 98.8991 147.51 98.9512L147.412 100.426C147.275 100.393 147.119 100.37 146.943 100.357C146.774 100.344 146.605 100.338 146.436 100.338C146.051 100.338 145.719 100.416 145.439 100.572C145.166 100.722 144.958 100.943 144.814 101.236C144.671 101.529 144.6 101.891 144.6 102.32V114ZM146.846 103.434V104.82H141.123V103.434H146.846ZM153.008 114.195C152.272 114.195 151.605 114.072 151.006 113.824C150.413 113.57 149.902 113.215 149.473 112.76C149.049 112.304 148.724 111.764 148.496 111.139C148.268 110.514 148.154 109.83 148.154 109.088V108.678C148.154 107.818 148.281 107.053 148.535 106.383C148.789 105.706 149.134 105.133 149.57 104.664C150.007 104.195 150.501 103.84 151.055 103.6C151.608 103.359 152.181 103.238 152.773 103.238C153.529 103.238 154.18 103.368 154.727 103.629C155.28 103.889 155.732 104.254 156.084 104.723C156.436 105.185 156.696 105.732 156.865 106.363C157.035 106.988 157.119 107.672 157.119 108.414V109.225H149.229V107.75H155.312V107.613C155.286 107.145 155.189 106.689 155.02 106.246C154.857 105.803 154.596 105.439 154.238 105.152C153.88 104.866 153.392 104.723 152.773 104.723C152.363 104.723 151.986 104.811 151.641 104.986C151.296 105.156 150.999 105.41 150.752 105.748C150.505 106.087 150.312 106.5 150.176 106.988C150.039 107.477 149.971 108.04 149.971 108.678V109.088C149.971 109.589 150.039 110.061 150.176 110.504C150.319 110.94 150.524 111.324 150.791 111.656C151.064 111.988 151.393 112.249 151.777 112.438C152.168 112.626 152.611 112.721 153.105 112.721C153.743 112.721 154.284 112.59 154.727 112.33C155.169 112.07 155.557 111.721 155.889 111.285L156.982 112.154C156.755 112.499 156.465 112.828 156.113 113.141C155.762 113.453 155.329 113.707 154.814 113.902C154.307 114.098 153.704 114.195 153.008 114.195ZM161.035 105.094V114H159.229V103.434H160.986L161.035 105.094ZM164.336 103.375L164.326 105.055C164.176 105.022 164.033 105.003 163.896 104.996C163.766 104.983 163.617 104.977 163.447 104.977C163.031 104.977 162.663 105.042 162.344 105.172C162.025 105.302 161.755 105.484 161.533 105.719C161.312 105.953 161.136 106.233 161.006 106.559C160.882 106.878 160.801 107.229 160.762 107.613L160.254 107.906C160.254 107.268 160.316 106.669 160.439 106.109C160.57 105.549 160.768 105.055 161.035 104.625C161.302 104.189 161.641 103.85 162.051 103.609C162.467 103.362 162.962 103.238 163.535 103.238C163.665 103.238 163.815 103.255 163.984 103.287C164.154 103.313 164.271 103.342 164.336 103.375ZM175.566 105.895V107.428H167.871V105.895H175.566ZM168.164 99.7812V114H166.279V99.7812H168.164ZM177.207 99.7812V114H175.332V99.7812H177.207ZM186.514 112.193V106.754C186.514 106.337 186.429 105.976 186.26 105.67C186.097 105.357 185.85 105.117 185.518 104.947C185.186 104.778 184.775 104.693 184.287 104.693C183.831 104.693 183.431 104.771 183.086 104.928C182.747 105.084 182.48 105.289 182.285 105.543C182.096 105.797 182.002 106.07 182.002 106.363H180.195C180.195 105.986 180.293 105.611 180.488 105.24C180.684 104.869 180.964 104.534 181.328 104.234C181.699 103.928 182.142 103.688 182.656 103.512C183.177 103.329 183.757 103.238 184.395 103.238C185.163 103.238 185.84 103.368 186.426 103.629C187.018 103.889 187.48 104.283 187.812 104.811C188.151 105.331 188.32 105.986 188.32 106.773V111.695C188.32 112.047 188.35 112.421 188.408 112.818C188.473 113.215 188.568 113.557 188.691 113.844V114H186.807C186.715 113.792 186.644 113.515 186.592 113.17C186.54 112.818 186.514 112.493 186.514 112.193ZM186.826 107.594L186.846 108.863H185.02C184.505 108.863 184.046 108.906 183.643 108.99C183.239 109.068 182.9 109.189 182.627 109.352C182.354 109.514 182.145 109.719 182.002 109.967C181.859 110.208 181.787 110.491 181.787 110.816C181.787 111.148 181.862 111.451 182.012 111.725C182.161 111.998 182.386 112.216 182.686 112.379C182.992 112.535 183.366 112.613 183.809 112.613C184.362 112.613 184.85 112.496 185.273 112.262C185.697 112.027 186.032 111.741 186.279 111.402C186.533 111.064 186.67 110.735 186.689 110.416L187.461 111.285C187.415 111.559 187.292 111.861 187.09 112.193C186.888 112.525 186.618 112.844 186.279 113.15C185.947 113.45 185.55 113.701 185.088 113.902C184.632 114.098 184.118 114.195 183.545 114.195C182.829 114.195 182.201 114.055 181.66 113.775C181.126 113.495 180.71 113.121 180.41 112.652C180.117 112.177 179.971 111.646 179.971 111.061C179.971 110.494 180.081 109.996 180.303 109.566C180.524 109.13 180.843 108.769 181.26 108.482C181.676 108.189 182.178 107.968 182.764 107.818C183.35 107.669 184.004 107.594 184.727 107.594H186.826ZM197.627 111.559V103.434H199.443V114H197.715L197.627 111.559ZM197.969 109.332L198.721 109.312C198.721 110.016 198.646 110.667 198.496 111.266C198.353 111.858 198.118 112.372 197.793 112.809C197.467 113.245 197.041 113.587 196.514 113.834C195.986 114.075 195.345 114.195 194.59 114.195C194.076 114.195 193.604 114.12 193.174 113.971C192.751 113.821 192.386 113.59 192.08 113.277C191.774 112.965 191.536 112.558 191.367 112.057C191.204 111.555 191.123 110.953 191.123 110.25V103.434H192.93V110.27C192.93 110.745 192.982 111.139 193.086 111.451C193.197 111.757 193.343 112.001 193.525 112.184C193.714 112.359 193.923 112.483 194.15 112.555C194.385 112.626 194.626 112.662 194.873 112.662C195.641 112.662 196.25 112.516 196.699 112.223C197.148 111.923 197.471 111.523 197.666 111.021C197.868 110.514 197.969 109.951 197.969 109.332ZM208.35 111.197C208.35 110.937 208.291 110.696 208.174 110.475C208.063 110.247 207.832 110.042 207.48 109.859C207.135 109.671 206.615 109.508 205.918 109.371C205.332 109.247 204.801 109.101 204.326 108.932C203.857 108.762 203.457 108.557 203.125 108.316C202.799 108.076 202.549 107.792 202.373 107.467C202.197 107.141 202.109 106.76 202.109 106.324C202.109 105.908 202.201 105.514 202.383 105.143C202.572 104.771 202.835 104.443 203.174 104.156C203.519 103.87 203.932 103.645 204.414 103.482C204.896 103.32 205.433 103.238 206.025 103.238C206.872 103.238 207.594 103.388 208.193 103.688C208.792 103.987 209.251 104.387 209.57 104.889C209.889 105.383 210.049 105.934 210.049 106.539H208.242C208.242 106.246 208.154 105.963 207.979 105.689C207.809 105.41 207.559 105.178 207.227 104.996C206.901 104.814 206.501 104.723 206.025 104.723C205.524 104.723 205.117 104.801 204.805 104.957C204.499 105.107 204.274 105.299 204.131 105.533C203.994 105.768 203.926 106.015 203.926 106.275C203.926 106.471 203.958 106.646 204.023 106.803C204.095 106.952 204.219 107.092 204.395 107.223C204.57 107.346 204.818 107.464 205.137 107.574C205.456 107.685 205.863 107.796 206.357 107.906C207.223 108.102 207.936 108.336 208.496 108.609C209.056 108.883 209.473 109.218 209.746 109.615C210.02 110.012 210.156 110.494 210.156 111.061C210.156 111.523 210.059 111.946 209.863 112.33C209.674 112.714 209.398 113.046 209.033 113.326C208.675 113.6 208.245 113.814 207.744 113.971C207.249 114.12 206.693 114.195 206.074 114.195C205.143 114.195 204.355 114.029 203.711 113.697C203.066 113.365 202.578 112.936 202.246 112.408C201.914 111.881 201.748 111.324 201.748 110.738H203.564C203.59 111.233 203.734 111.627 203.994 111.92C204.255 112.206 204.574 112.411 204.951 112.535C205.329 112.652 205.703 112.711 206.074 112.711C206.569 112.711 206.982 112.646 207.314 112.516C207.653 112.385 207.91 112.206 208.086 111.979C208.262 111.751 208.35 111.49 208.35 111.197ZM226.387 112.467V114H219.277V112.467H226.387ZM219.648 99.7812V114H217.764V99.7812H219.648ZM232.656 114.195C231.921 114.195 231.253 114.072 230.654 113.824C230.062 113.57 229.551 113.215 229.121 112.76C228.698 112.304 228.372 111.764 228.145 111.139C227.917 110.514 227.803 109.83 227.803 109.088V108.678C227.803 107.818 227.93 107.053 228.184 106.383C228.438 105.706 228.783 105.133 229.219 104.664C229.655 104.195 230.15 103.84 230.703 103.6C231.257 103.359 231.829 103.238 232.422 103.238C233.177 103.238 233.828 103.368 234.375 103.629C234.928 103.889 235.381 104.254 235.732 104.723C236.084 105.185 236.344 105.732 236.514 106.363C236.683 106.988 236.768 107.672 236.768 108.414V109.225H228.877V107.75H234.961V107.613C234.935 107.145 234.837 106.689 234.668 106.246C234.505 105.803 234.245 105.439 233.887 105.152C233.529 104.866 233.04 104.723 232.422 104.723C232.012 104.723 231.634 104.811 231.289 104.986C230.944 105.156 230.648 105.41 230.4 105.748C230.153 106.087 229.961 106.5 229.824 106.988C229.688 107.477 229.619 108.04 229.619 108.678V109.088C229.619 109.589 229.688 110.061 229.824 110.504C229.967 110.94 230.173 111.324 230.439 111.656C230.713 111.988 231.042 112.249 231.426 112.438C231.816 112.626 232.259 112.721 232.754 112.721C233.392 112.721 233.932 112.59 234.375 112.33C234.818 112.07 235.205 111.721 235.537 111.285L236.631 112.154C236.403 112.499 236.113 112.828 235.762 113.141C235.41 113.453 234.977 113.707 234.463 113.902C233.955 114.098 233.353 114.195 232.656 114.195ZM240.684 105.689V114H238.877V103.434H240.586L240.684 105.689ZM240.254 108.316L239.502 108.287C239.508 107.564 239.616 106.897 239.824 106.285C240.033 105.667 240.326 105.13 240.703 104.674C241.081 104.218 241.53 103.867 242.051 103.619C242.578 103.365 243.161 103.238 243.799 103.238C244.32 103.238 244.788 103.31 245.205 103.453C245.622 103.59 245.977 103.811 246.27 104.117C246.569 104.423 246.797 104.82 246.953 105.309C247.109 105.79 247.188 106.38 247.188 107.076V114H245.371V107.057C245.371 106.503 245.29 106.061 245.127 105.729C244.964 105.39 244.727 105.146 244.414 104.996C244.102 104.84 243.717 104.762 243.262 104.762C242.812 104.762 242.402 104.856 242.031 105.045C241.667 105.234 241.351 105.494 241.084 105.826C240.824 106.158 240.618 106.539 240.469 106.969C240.326 107.392 240.254 107.841 240.254 108.316ZM257.803 112.516V114H250.117V112.516H257.803ZM257.52 104.713L250.527 114H249.424V112.672L256.367 103.434H257.52V104.713ZM256.719 103.434V104.928H249.502V103.434H256.719ZM259.844 99H261.66V111.949L261.504 114H259.844V99ZM268.799 108.629V108.834C268.799 109.602 268.708 110.315 268.525 110.973C268.343 111.624 268.076 112.19 267.725 112.672C267.373 113.154 266.943 113.528 266.436 113.795C265.928 114.062 265.345 114.195 264.688 114.195C264.017 114.195 263.428 114.081 262.92 113.854C262.419 113.619 261.995 113.284 261.65 112.848C261.305 112.411 261.029 111.884 260.82 111.266C260.618 110.647 260.479 109.951 260.4 109.176V108.277C260.479 107.496 260.618 106.796 260.82 106.178C261.029 105.559 261.305 105.032 261.65 104.596C261.995 104.153 262.419 103.818 262.92 103.59C263.421 103.355 264.004 103.238 264.668 103.238C265.332 103.238 265.921 103.368 266.436 103.629C266.95 103.883 267.38 104.247 267.725 104.723C268.076 105.198 268.343 105.768 268.525 106.432C268.708 107.089 268.799 107.822 268.799 108.629ZM266.982 108.834V108.629C266.982 108.102 266.934 107.607 266.836 107.145C266.738 106.676 266.582 106.266 266.367 105.914C266.152 105.556 265.869 105.276 265.518 105.074C265.166 104.866 264.733 104.762 264.219 104.762C263.763 104.762 263.366 104.84 263.027 104.996C262.695 105.152 262.412 105.364 262.178 105.631C261.943 105.891 261.751 106.191 261.602 106.529C261.458 106.861 261.351 107.206 261.279 107.564V109.918C261.383 110.374 261.553 110.813 261.787 111.236C262.028 111.653 262.347 111.995 262.744 112.262C263.148 112.529 263.646 112.662 264.238 112.662C264.727 112.662 265.143 112.564 265.488 112.369C265.84 112.167 266.123 111.891 266.338 111.539C266.559 111.188 266.722 110.781 266.826 110.318C266.93 109.856 266.982 109.361 266.982 108.834ZM277.549 111.559V103.434H279.365V114H277.637L277.549 111.559ZM277.891 109.332L278.643 109.312C278.643 110.016 278.568 110.667 278.418 111.266C278.275 111.858 278.04 112.372 277.715 112.809C277.389 113.245 276.963 113.587 276.436 113.834C275.908 114.075 275.267 114.195 274.512 114.195C273.997 114.195 273.525 114.12 273.096 113.971C272.673 113.821 272.308 113.59 272.002 113.277C271.696 112.965 271.458 112.558 271.289 112.057C271.126 111.555 271.045 110.953 271.045 110.25V103.434H272.852V110.27C272.852 110.745 272.904 111.139 273.008 111.451C273.118 111.757 273.265 112.001 273.447 112.184C273.636 112.359 273.844 112.483 274.072 112.555C274.307 112.626 274.548 112.662 274.795 112.662C275.563 112.662 276.172 112.516 276.621 112.223C277.07 111.923 277.393 111.523 277.588 111.021C277.79 110.514 277.891 109.951 277.891 109.332ZM283.926 105.094V114H282.119V103.434H283.877L283.926 105.094ZM287.227 103.375L287.217 105.055C287.067 105.022 286.924 105.003 286.787 104.996C286.657 104.983 286.507 104.977 286.338 104.977C285.921 104.977 285.553 105.042 285.234 105.172C284.915 105.302 284.645 105.484 284.424 105.719C284.202 105.953 284.027 106.233 283.896 106.559C283.773 106.878 283.691 107.229 283.652 107.613L283.145 107.906C283.145 107.268 283.206 106.669 283.33 106.109C283.46 105.549 283.659 105.055 283.926 104.625C284.193 104.189 284.531 103.85 284.941 103.609C285.358 103.362 285.853 103.238 286.426 103.238C286.556 103.238 286.706 103.255 286.875 103.287C287.044 103.313 287.161 103.342 287.227 103.375ZM295.547 103.434H297.188V113.775C297.188 114.706 296.999 115.501 296.621 116.158C296.243 116.816 295.716 117.314 295.039 117.652C294.368 117.997 293.594 118.17 292.715 118.17C292.35 118.17 291.921 118.111 291.426 117.994C290.938 117.883 290.456 117.691 289.98 117.418C289.512 117.151 289.118 116.79 288.799 116.334L289.746 115.26C290.189 115.794 290.651 116.165 291.133 116.373C291.621 116.581 292.103 116.686 292.578 116.686C293.151 116.686 293.646 116.578 294.062 116.363C294.479 116.148 294.801 115.829 295.029 115.406C295.264 114.99 295.381 114.475 295.381 113.863V105.758L295.547 103.434ZM288.271 108.834V108.629C288.271 107.822 288.366 107.089 288.555 106.432C288.75 105.768 289.027 105.198 289.385 104.723C289.749 104.247 290.189 103.883 290.703 103.629C291.217 103.368 291.797 103.238 292.441 103.238C293.105 103.238 293.685 103.355 294.18 103.59C294.681 103.818 295.104 104.153 295.449 104.596C295.801 105.032 296.077 105.559 296.279 106.178C296.481 106.796 296.621 107.496 296.699 108.277V109.176C296.628 109.951 296.488 110.647 296.279 111.266C296.077 111.884 295.801 112.411 295.449 112.848C295.104 113.284 294.681 113.619 294.18 113.854C293.678 114.081 293.092 114.195 292.422 114.195C291.79 114.195 291.217 114.062 290.703 113.795C290.195 113.528 289.759 113.154 289.395 112.672C289.03 112.19 288.75 111.624 288.555 110.973C288.366 110.315 288.271 109.602 288.271 108.834ZM290.078 108.629V108.834C290.078 109.361 290.13 109.856 290.234 110.318C290.345 110.781 290.511 111.188 290.732 111.539C290.96 111.891 291.25 112.167 291.602 112.369C291.953 112.564 292.373 112.662 292.861 112.662C293.46 112.662 293.955 112.535 294.346 112.281C294.736 112.027 295.046 111.692 295.273 111.275C295.508 110.859 295.69 110.406 295.82 109.918V107.564C295.749 107.206 295.638 106.861 295.488 106.529C295.345 106.191 295.156 105.891 294.922 105.631C294.694 105.364 294.411 105.152 294.072 104.996C293.734 104.84 293.337 104.762 292.881 104.762C292.386 104.762 291.96 104.866 291.602 105.074C291.25 105.276 290.96 105.556 290.732 105.914C290.511 106.266 290.345 106.676 290.234 107.145C290.13 107.607 290.078 108.102 290.078 108.629Z" fill="#E5E5ED"/>
<defs>
<clipPath id="clip0_103_84">
<rect width="286" height="101" fill="white"/>
</clipPath>
</defs>
</svg>
